# xmcd
#
# Track frame offsets: 
#        150
#        16719
#        26115
#        40217
#        50876
#        67163
#        79129
#        93504
#        116203
#        130166
#        144027
#        157872
#        168600
#        179945
#        195007
#        207973
#        226350
#        244398
#        270643
#        284137
#        299209
#        319208
#
# Disc length: 4441 seconds
#
# Revision: 1
# Processed by: cddbd v1.5.2PL0 Copyright (c) Steve Scherf et al.
# Submitted via: ExactAudioCopyFreeDBPlugin 1.0
#
DISCID=57115716
DTITLE=Various Artist - The XL and Sound of Memphis Story
DYEAR=2010
DGENRE=Soul
TTITLE0=Willie Walker - If You Never See Me
TTITLE1=William Bollinger - I Won't Have to Cry No More
TTITLE2=The Jacksonians - Saturday in the Park
TTITLE3=The Minits - Hook Line and Sinker
TTITLE4=George Jackson - How Can I Get Next to You?
TTITLE5=Otis Wheat - I'm Your Slave
TTITLE6=Dani Greer - You're Slipping Away
TTITLE7=The Jacksonians - I Love You More Than You'll Ever Know
TTITLE8=William Bollinger - People are Talking
TTITLE9=Willie Walker - Run Around
TTITLE10=The Minits - Love Letters
TTITLE11=The Jacksonians - Sparkle Eyes
TTITLE12=Art Jerry Miller - Always Treat Your Woman
TTITLE13=Lou Roberts - Chirpin'
TTITLE14=Dan Greer - Take a Look at Yourself
TTITLE15=George Jackson - Love Trying to Come
TTITLE16=Erma Shaw - Love is Blind
TTITLE17=Louis Williams - Steppin' Stone
TTITLE18=The Minits - Lover Boy
TTITLE19=Jimi Hill - Guessing Game
TTITLE20=Tekelia Kelly - Because of You
TTITLE21=The Ovations - The Plumber
EXTD=
EXTT0=
EXTT1=
EXTT2=
EXTT3=
EXTT4=
EXTT5=
EXTT6=
EXTT7=
EXTT8=
EXTT9=
EXTT10=
EXTT11=
EXTT12=
EXTT13=
EXTT14=
EXTT15=
EXTT16=
EXTT17=
EXTT18=
EXTT19=
EXTT20=
EXTT21=
PLAYORDER=
